<svg xmlns="http://www.w3.org/2000/svg" viewBox="0 0 100 100">
  <!-- Background -->
  <rect width="100" height="100" rx="15" fill="#1e293b"/>

  <!-- Spade symbol -->
  <path d="M50 25 C40 35, 35 40, 35 48 C35 53, 38 56, 43 56 C40 60, 38 63, 38 68 L62 68 C62 63, 60 60, 57 56 C62 56, 65 53, 65 48 C65 40, 60 35, 50 25 Z" fill="#ef4444"/>

  <!-- Heart symbol -->
  <path d="M70 40 C70 35, 73 32, 77 32 C81 32, 84 35, 84 40 C84 48, 77 55, 70 62 C63 55, 56 48, 56 40 C56 35, 59 32, 63 32 C67 32, 70 35, 70 40 Z" fill="#ef4444" transform="translate(-20, 10) scale(0.8)"/>

  <!-- Club symbol -->
  <circle cx="25" cy="75" r="4" fill="#fbbf24"/>
  <circle cx="30" cy="68" r="4" fill="#fbbf24"/>
  <circle cx="20" cy="68" r="4" fill="#fbbf24"/>
  <rect x="23" y="75" width="4" height="6" fill="#fbbf24"/>

  <!-- Diamond symbol -->
  <path d="M80 75 L85 80 L80 85 L75 80 Z" fill="#fbbf24"/>
</svg>
